PathFileType  4	(X/Y/Z) C:\Users\antoi\Documents\MyRepositories\mobilecap\ResultsAnalysis
DataRate	CameraRate	NumFrames	NumMarkers	Units	OrigDataRate	OrigDataStartFrame	OrigNumFrames
100.0	100.0	4	51	mm	100.0	115	131
Frame#	Time	r_knee			r_shank_antsup			r_ankle			r_calc			r_5meta			r_toe			L_knee			L_shank_antsup			L_ankle			L_calc			L_5meta			L_toe			r_sh2			r_sh3			r_sh4			L_sh2			L_sh3			r_thigh1			r_thigh2			r_thigh3			r_thigh4			r_thigh5			L_thigh1			L_thigh2			L_thigh3			L_thigh4			r.ASIS			r.PSIS			L.ASIS			L.PSIS			C7			R_Shoulder			L_Shoulder			R_Sternum			L_Sternum			R_humerus			R_elbow_med			R_elbow_lat			R_forearm			R_wrist_radius			R_wrist_ulna			L_humerus			L_elbow_med			L_elbow_lat			L_forearm			L_wrist_radius			L_wrist_ulna			R_HJC			L_HJC			R_HJC_reg			L_HJC_reg			
		X1	Y1	Z1	X2	Y2	Z2	X3	Y3	Z3	X4	Y4	Z4	X5	Y5	Z5	X6	Y6	Z6	X7	Y7	Z7	X8	Y8	Z8	X9	Y9	Z9	X10	Y10	Z10	X11	Y11	Z11	X12	Y12	Z12	X13	Y13	Z13	X14	Y14	Z14	X15	Y15	Z15	X16	Y16	Z16	X17	Y17	Z17	X18	Y18	Z18	X19	Y19	Z19	X20	Y20	Z20	X21	Y21	Z21	X22	Y22	Z22	X23	Y23	Z23	X24	Y24	Z24	X25	Y25	Z25	X26	Y26	Z26	X27	Y27	Z27	X28	Y28	Z28	X29	Y29	Z29	X30	Y30	Z30	X31	Y31	Z31	X32	Y32	Z32	X33	Y33	Z33	X34	Y34	Z34	X35	Y35	Z35	X36	Y36	Z36	X37	Y37	Z37	X38	Y38	Z38	X39	Y39	Z39	X40	Y40	Z40	X41	Y41	Z41	X42	Y42	Z42	X43	Y43	Z43	X44	Y44	Z44	X45	Y45	Z45	X46	Y46	Z46	X47	Y47	Z47	X48	Y48	Z48	X49	Y49	Z49	X50	Y50	Z50	X51	Y51	Z51	

115	1.14000000	1427.25159	490.26144	-111.21867	1488.47722	407.91527	-127.47145	1478.90116	87.95084	-153.19555	1423.56167	55.08247	-207.82617	1600.25835	49.49979	-113.30072	1632.39659	82.84015	-166.82164	1148.23005	475.54891	-365.27457	1131.04299	379.24873	-349.25616	886.15325	143.92674	-333.11869	800.48420	140.86189	-283.71556	950.70996	37.13474	-356.64821	1003.26660	50.07963	-299.86104	1505.33638	296.46261	-137.77136	1427.67866	393.46305	-83.89885	1438.26751	279.22830	-90.23623	1075.47963	436.10138	-390.27659	998.87040	342.30410	-393.08044	1372.62869	763.25439	-66.06655	1418.43917	664.62847	-89.58749	1381.30062	615.19818	-60.74472	1273.64055	711.75411	-48.39804	1325.86940	612.55095	-75.24948	1291.95478	698.72089	-385.24172	1270.20448	562.69159	-358.86282	1189.39848	708.32185	-422.20730	1165.12324	581.03234	-384.10407	1345.52944	939.27303	-109.33406	1138.11310	953.37890	-186.59310	1345.20537	925.72589	-365.83165	1141.60471	959.38904	-279.95789	1171.38665	1418.73476	-245.22930	1218.07648	1387.12456	-74.35542	1265.74811	1388.93957	-388.27153	1296.08012	1344.51549	-207.35050	1298.41693	1346.96403	-254.48369	1226.51722	1254.90567	-15.43126	1133.20230	1064.79471	-79.76221	1121.03197	1079.26343	-12.79728	1147.85984	1009.59399	26.99358	1153.03181	833.64077	18.09451	1114.86388	849.49615	45.27019	1329.35567	1268.63061	-438.33528	1331.44438	1057.18535	-406.55719	1359.60876	1081.55820	-479.53174	1436.24455	1076.01740	-466.20374	1582.59325	1002.95185	-399.81592	1571.36778	978.43283	-442.04512	1268.00923	845.68575	-130.20159	1266.48558	839.64023	-319.64701	1278.66101	841.60938	-153.60182	1284.96914	852.50788	-322.66671	
116	1.15000000	1441.82523	491.84228	-110.99550	1500.80765	407.42714	-127.48261	1480.94366	88.06133	-153.31268	1424.35344	55.63769	-207.67759	1601.30536	47.41759	-113.30219	1634.10585	79.74245	-167.03301	1169.23734	474.13559	-366.27734	1150.02750	377.49308	-351.03835	896.07407	151.35208	-335.79193	810.61653	153.99634	-285.93263	953.04553	38.85193	-357.05220	1005.78101	49.22766	-300.20716	1514.36747	295.54206	-137.93361	1440.31064	394.61336	-82.89216	1447.62945	280.09842	-89.09734	1095.88708	436.49453	-391.21564	1015.68634	345.68015	-394.33892	1387.21638	765.43069	-65.01636	1432.87037	666.85685	-88.95882	1396.09809	617.38318	-59.83566	1288.48454	713.89801	-46.75177	1340.78611	614.48924	-73.83420	1309.80058	699.12477	-384.13358	1290.36520	562.51668	-358.86623	1207.00369	707.29704	-421.05741	1184.88278	579.34161	-383.85184	1359.68257	941.13211	-107.21094	1152.50845	954.30187	-186.15464	1360.81928	925.98828	-363.29584	1156.70184	959.36570	-279.99112	1184.91084	1419.47620	-243.76509	1231.35380	1387.68739	-72.83103	1279.61560	1389.56936	-386.83979	1309.66893	1345.46829	-205.76431	1312.08230	1347.88720	-252.89851	1240.86035	1255.29246	-14.24682	1148.89539	1064.51620	-78.47046	1136.56148	1078.94296	-11.49756	1163.82470	1009.54152	28.28463	1170.06638	833.65818	19.50608	1131.70034	849.25744	46.63814	1341.97078	1268.28383	-437.34958	1341.47676	1056.82189	-404.74985	1369.34043	1080.55345	-478.06751	1445.91201	1073.90313	-465.38587	1591.70276	999.10425	-399.88526	1579.86368	974.54988	-441.92904	1282.29422	847.25428	-128.05381	1282.26939	839.88796	-317.45643	1292.98225	843.60526	-150.92982	1300.51485	852.74372	-319.82787	
117	1.16000000	1455.68359	493.22371	-110.61960	1512.09176	406.75539	-127.19939	1482.39836	88.28876	-153.37933	1424.87793	55.95437	-207.51738	1601.95533	45.98025	-113.07476	1635.27407	77.47935	-166.97090	1191.86217	472.63760	-367.52271	1170.75725	375.63094	-353.10584	907.85976	159.46283	-338.47879	823.22793	168.48440	-288.37285	956.00100	41.54990	-357.51714	1009.01446	48.84802	-300.70559	1522.48535	294.55520	-137.84605	1451.93172	395.53148	-81.70496	1456.01988	280.81600	-87.88365	1118.18294	436.79356	-392.40705	1034.41538	349.14269	-395.75685	1401.74349	767.72637	-64.28400	1447.12785	669.15668	-88.51758	1410.85819	619.71403	-58.75840	1303.37273	716.24825	-44.75780	1355.55958	616.54907	-72.05105	1328.08692	699.85884	-383.19300	1311.64007	562.63428	-359.16244	1225.01030	706.17165	-419.88419	1205.71418	577.48041	-383.77227	1373.71021	943.32587	-105.16736	1166.79857	955.48112	-185.74566	1376.17834	926.63988	-360.72817	1171.65877	959.44829	-280.01838	1198.41275	1420.52272	-242.31202	1244.62370	1388.70037	-71.33815	1293.37554	1390.48143	-385.35694	1323.21581	1346.78088	-204.18831	1325.67680	1349.14149	-251.31945	1255.29768	1256.18473	-13.02627	1164.79386	1064.72535	-77.16248	1152.29517	1079.05580	-10.17383	1180.09990	1009.94246	29.57215	1187.71679	834.15646	20.89278	1149.12924	849.44327	47.97662	1354.44332	1268.27152	-436.36729	1351.13967	1056.84373	-402.94832	1378.79545	1079.88262	-476.62236	1455.20048	1071.87998	-464.62417	1600.20617	994.79606	-400.14378	1587.64807	970.30954	-442.02782	1296.51837	849.12471	-125.93260	1297.94842	840.42840	-315.27415	1307.14107	846.14293	-148.16760	1315.82293	853.26715	-316.81917	
118	1.17000000	1468.39958	494.21004	-110.04118	1522.17235	405.83294	-126.76752	1483.39854	88.55309	-153.44678	1425.19371	56.11143	-207.37968	1602.35161	44.99383	-112.76185	1636.06894	75.79182	-166.80413	1216.08143	470.99249	-368.96628	1193.08897	373.63184	-355.25471	921.69508	168.12833	-341.08983	838.65109	184.15602	-290.99561	959.73826	45.39747	-358.03179	1013.06376	49.10454	-301.41903	1529.70380	293.45210	-137.63513	1462.39318	396.08559	-80.49274	1463.44195	281.26221	-86.76267	1142.35485	436.94972	-393.79372	1055.17502	352.60314	-397.29667	1416.06272	769.88009	-63.71089	1460.96266	671.20121	-88.09469	1425.13162	621.90153	-57.52363	1318.01275	718.66795	-42.54672	1369.75435	618.58077	-70.02322	1346.72318	700.85535	-382.46959	1333.90160	563.03654	-359.75294	1243.34478	704.89592	-418.69018	1227.52550	575.45457	-383.87426	1387.59680	945.70855	-103.24361	1180.93221	956.87238	-185.35640	1391.19277	927.61732	-358.21444	1186.40803	959.62667	-279.98750	1211.86633	1421.79341	-240.87244	1257.90368	1390.12184	-69.88901	1306.93986	1391.63007	-383.83541	1336.71253	1348.39497	-202.64676	1339.18968	1350.66669	-249.77295	1269.80788	1257.55862	-11.75651	1180.83017	1065.42361	-75.81954	1168.19518	1079.59791	-8.80583	1196.65876	1010.77179	30.86732	1205.96923	835.12495	22.24310	1167.14098	850.03793	49.28635	1366.72437	1268.56950	-435.38792	1360.46238	1057.23829	-401.14392	1387.99281	1079.52956	-475.20205	1464.12537	1069.95770	-463.91892	1608.10470	990.05829	-400.60438	1594.72708	965.76020	-442.35596	1310.62720	851.18520	-123.89413	1313.40162	841.21466	-313.16204	1321.06326	849.09757	-145.39484	1330.79648	854.02041	-313.74004	
